<svg id="Capa_1" enable-background="new 0 0 512 512" height="512" viewBox="0 0 512 512" width="512" xmlns="http://www.w3.org/2000/svg" xmlns:xlink="http://www.w3.org/1999/xlink"><linearGradient id="lg1"><stop offset="0" stop-color="#f7e041"/><stop offset="1" stop-color="#fcf3b3"/></linearGradient><linearGradient id="SVGID_1_" gradientUnits="userSpaceOnUse" x1="137.892" x2="412.73" xlink:href="#lg1" y1="158.947" y2="158.947"/><linearGradient id="lg2"><stop offset="0" stop-color="#f7e041"/><stop offset=".3074" stop-color="#f9e86f"/><stop offset=".607" stop-color="#fbee94"/><stop offset=".848" stop-color="#fcf2ab"/><stop offset="1" stop-color="#fcf3b3"/></linearGradient><linearGradient id="SVGID_2_" gradientTransform="matrix(.85 .527 -.527 .85 90.685 -102.139)" gradientUnits="userSpaceOnUse" x1="179.009" x2="179.009" xlink:href="#lg2" y1="126.732" y2="39.488"/><linearGradient id="SVGID_3_" gradientUnits="userSpaceOnUse" x1="155.809" x2="155.809" xlink:href="#lg2" y1="94.585" y2="43.72"/><linearGradient id="SVGID_4_" gradientUnits="userSpaceOnUse" x1="320.165" x2="320.165" xlink:href="#lg1" y1="108.233" y2="23.251"/><linearGradient id="SVGID_5_" gradientUnits="userSpaceOnUse" x1="362.288" x2="362.288" xlink:href="#lg2" y1="118.071" y2="67.205"/><linearGradient id="SVGID_6_" gradientUnits="userSpaceOnUse" x1="228.695" x2="228.695" xlink:href="#lg2" y1="245.094" y2="194.228"/><linearGradient id="SVGID_7_" gradientUnits="userSpaceOnUse" x1="107.451" x2="107.451" xlink:href="#lg1" y1="154.803" y2="92.114"/><linearGradient id="SVGID_8_" gradientUnits="userSpaceOnUse" x1="301.576" x2="301.576" xlink:href="#lg2" y1="274.672" y2="187.428"/><linearGradient id="SVGID_9_" gradientTransform="matrix(.929 -.369 .369 .929 -32.553 146.42)" gradientUnits="userSpaceOnUse" x1="415.921" x2="415.921" xlink:href="#lg2" y1="185.681" y2="106.776"/><linearGradient id="SVGID_10_" gradientUnits="userSpaceOnUse" x1="293.265" x2="293.265" xlink:href="#lg2" y1="142.111" y2="66.144"/><linearGradient id="SVGID_11_" gradientTransform="matrix(.896 .443 -.443 .896 120.263 -133.227)" gradientUnits="userSpaceOnUse" x1="337.859" x2="337.859" xlink:href="#lg2" y1="232.644" y2="145.399"/><linearGradient id="SVGID_12_" gradientTransform="matrix(.896 .443 -.443 .896 120.263 -133.227)" gradientUnits="userSpaceOnUse" x1="236.941" x2="236.941" xlink:href="#lg2" y1="280.499" y2="193.253"/><linearGradient id="SVGID_13_" gradientTransform="matrix(.912 .41 -.41 .912 18.796 -136.881)" gradientUnits="userSpaceOnUse" x1="251.605" x2="251.605" xlink:href="#lg2" y1="292.291" y2="205.048"/><linearGradient id="SVGID_14_" gradientUnits="userSpaceOnUse" x1="241.229" x2="261.461" y1="318.078" y2="318.078"><stop offset="0" stop-color="#ab2c37"/><stop offset="1" stop-color="#ff4757"/></linearGradient><linearGradient id="SVGID_15_" gradientTransform="matrix(.929 -.369 .369 .929 -32.553 146.42)" gradientUnits="userSpaceOnUse" x1="210.533" x2="210.533" xlink:href="#lg2" y1="107.448" y2="20.205"/><linearGradient id="SVGID_16_" gradientUnits="userSpaceOnUse" x1="260.549" x2="260.549" xlink:href="#lg2" y1="59.081" y2="8.215"/><linearGradient id="SVGID_17_" gradientUnits="userSpaceOnUse" x1="243.046" x2="243.046" xlink:href="#lg2" y1="121.159" y2="70.293"/><linearGradient id="SVGID_18_" gradientUnits="userSpaceOnUse" x1="284.554" x2="284.554" xlink:href="#lg2" y1="83.085" y2="32.22"/><linearGradient id="SVGID_19_" gradientUnits="userSpaceOnUse" x1="289.283" x2="289.283" xlink:href="#lg2" y1="171.069" y2="120.203"/><linearGradient id="SVGID_20_" gradientUnits="userSpaceOnUse" x1="198.762" x2="198.762" xlink:href="#lg2" y1="178.111" y2="127.246"/><g><path d="m71.141 151.512 73.233-74.699c56.26-57.386 147.147-61.983 208.909-10.565l86.865 72.315-197.703 148.8z" fill="url(#SVGID_1_)"/><path d="m235.214 43.447c-2.621-2.52-5.757-4.16-9.051-4.965 2.356-2.439 4.133-5.5 5.004-9.029 2.635-10.67-3.879-21.455-14.549-24.09s-21.455 3.879-24.09 14.549c-.872 3.53-.724 7.065.226 10.321-3.29-.821-6.829-.829-10.322.181-10.558 3.053-16.641 14.087-13.588 24.644 3.053 10.558 14.087 16.641 24.644 13.588 3.492-1.01 6.48-2.906 8.825-5.356.934 3.26 2.697 6.329 5.318 8.848 7.923 7.617 20.52 7.368 28.137-.555s7.369-20.52-.554-28.136z" fill="url(#SVGID_2_)"/><circle cx="155.809" cy="59.51" fill="url(#SVGID_3_)" r="24.005"/><path d="m340.717 33.687c-3.555-.76-7.085-.501-10.309.552.716-3.315.613-6.852-.507-10.311-3.385-10.456-14.605-16.188-25.061-12.803s-16.188 14.605-12.803 25.061c1.12 3.459 3.109 6.386 5.632 8.652-3.229 1.037-6.241 2.895-8.676 5.594-7.363 8.159-6.717 20.742 1.442 28.105s20.742 6.717 28.105-1.442c2.436-2.699 3.976-5.885 4.677-9.203 2.512 2.278 5.628 3.957 9.183 4.717 10.748 2.297 21.322-4.554 23.619-15.302 2.296-10.749-4.555-21.323-15.302-23.62z" fill="url(#SVGID_4_)"/><circle cx="362.288" cy="82.995" fill="url(#SVGID_5_)" r="24.005"/><circle cx="228.695" cy="210.018" fill="url(#SVGID_6_)" r="24.005"/><path d="m138.604 123.892c-2.442-2.694-5.458-4.545-8.689-5.575 2.518-2.272 4.501-5.203 5.613-8.664 3.361-10.464-2.396-21.671-12.86-25.032s-21.671 2.396-25.032 12.86c-1.112 3.461-1.207 6.999-.483 10.312-3.226-1.045-6.756-1.296-10.31-.528-10.743 2.321-17.569 12.911-15.248 23.653s12.911 17.569 23.653 15.248c3.554-.768 6.665-2.454 9.172-4.737.708 3.317 2.256 6.499 4.697 9.193 7.381 8.143 19.965 8.76 28.108 1.379 8.143-7.382 8.76-19.966 1.379-28.109z" fill="url(#SVGID_7_)"/><path d="m322.128 195.479c-3.555-.76-7.085-.501-10.309.552.717-3.315.613-6.852-.507-10.311-3.385-10.456-14.605-16.188-25.061-12.803s-16.188 14.605-12.803 25.061c1.12 3.459 3.109 6.386 5.632 8.652-3.229 1.037-6.241 2.895-8.676 5.594-7.363 8.159-6.717 20.742 1.442 28.105s20.742 6.717 28.105-1.442c2.436-2.699 3.976-5.885 4.676-9.203 2.513 2.278 5.628 3.957 9.183 4.717 10.747 2.297 21.322-4.554 23.618-15.302 2.299-10.749-4.552-21.324-15.3-23.62z" fill="url(#SVGID_8_)"/><path d="m416.986 95.81c-3.585.606-6.769 2.149-9.377 4.317-.557-3.345-1.959-6.595-4.276-9.396-7.005-8.468-19.548-9.655-28.017-2.65-8.468 7.005-9.655 19.549-2.65 28.017 2.317 2.801 5.246 4.787 8.427 5.962-2.618 2.155-4.732 4.994-5.999 8.401-3.832 10.301 1.413 21.757 11.713 25.589 10.301 3.832 21.757-1.413 25.589-11.713 1.267-3.407 1.523-6.937.95-10.28 3.176 1.19 6.691 1.601 10.275.995 10.836-1.832 18.136-12.102 16.303-22.938-1.832-10.837-12.102-18.136-22.938-16.304z" fill="url(#SVGID_9_)"/><path d="m317.786 119.874c-.595-3.586-2.129-6.775-4.289-9.39 3.347-.547 6.6-1.939 9.409-4.248 8.49-6.979 9.713-19.52 2.734-28.009-6.98-8.489-19.52-9.713-28.009-2.734-2.808 2.309-4.803 5.232-5.987 8.41-2.148-2.625-4.98-4.746-8.384-6.024-10.289-3.862-21.761 1.348-25.623 11.637s1.348 21.761 11.637 25.623c3.404 1.278 6.932 1.544 10.277.98-1.199 3.172-1.621 6.686-1.025 10.272 1.8 10.842 12.048 18.172 22.89 16.372 10.84-1.799 18.17-12.047 16.37-22.889z" fill="url(#SVGID_10_)"/><path d="m381.076 147.919c-2.85-2.257-6.129-3.589-9.485-4.074 2.112-2.654 3.586-5.871 4.116-9.467 1.6-10.873-5.917-20.984-16.79-22.585-10.873-1.6-20.985 5.917-22.584 16.79-.529 3.597-.043 7.102 1.214 10.252-3.354-.502-6.877-.171-10.257 1.169-10.216 4.051-15.214 15.617-11.163 25.833s15.617 15.214 25.833 11.163c3.38-1.34 6.172-3.514 8.271-6.177 1.242 3.156 3.291 6.041 6.141 8.298 8.616 6.822 21.132 5.368 27.954-3.249 6.821-8.615 5.366-21.13-3.25-27.953z" fill="url(#SVGID_11_)"/><path d="m265.119 154.756c-2.85-2.257-6.129-3.589-9.485-4.074 2.112-2.654 3.587-5.871 4.116-9.467 1.6-10.873-5.917-20.984-16.79-22.584s-20.984 5.917-22.585 16.791c-.529 3.597-.043 7.102 1.214 10.252-3.354-.502-6.877-.171-10.257 1.169-10.216 4.051-15.214 15.617-11.163 25.833s15.617 15.214 25.833 11.163c3.38-1.34 6.172-3.513 8.271-6.177 1.242 3.156 3.291 6.041 6.141 8.298 8.616 6.822 21.132 5.368 27.954-3.249 6.822-8.618 5.367-21.133-3.249-27.955z" fill="url(#SVGID_12_)"/><path d="m179.591 169.105c-2.931-2.151-6.256-3.363-9.628-3.726 2.013-2.729 3.37-5.997 3.768-9.611 1.202-10.924-6.679-20.755-17.603-21.957s-20.755 6.679-21.957 17.603c-.398 3.614.216 7.099 1.587 10.201-3.37-.379-6.879.08-10.207 1.543-10.062 4.421-14.635 16.161-10.214 26.223s16.161 14.635 26.223 10.214c3.328-1.462 6.04-3.736 8.04-6.475 1.357 3.108 3.509 5.917 6.44 8.069 8.859 6.503 21.313 4.593 27.817-4.266 6.503-8.86 4.593-21.314-4.266-27.818z" fill="url(#SVGID_13_)"/><path d="m444.584 141.865c0-14.886-9.051-21.729-20.216-15.283s-20.216 23.739-20.216 38.626v3.879l-40.431 23.343v-3.879c0-14.886-9.051-21.729-20.216-15.283-11.165 6.446-20.216 23.739-20.216 38.626v3.879l-40.444 23.35v-3.879c0-14.886-9.051-21.729-20.216-15.283-10.956 6.326-19.856 23.093-20.184 37.786v-2.798c0-12.889-7.836-27.861-17.503-33.443-9.667-5.581-17.503.343-17.503 13.232v7.496l-35.006-20.211v-7.496c0-12.889-7.836-27.862-17.503-33.443-9.667-5.581-17.503.343-17.503 13.232v7.496l-35.006-20.211v-7.496c0-12.889-7.836-27.862-17.503-33.443s-17.503.343-17.503 13.232v7.496l19.124 243.245c1.227 15.599 10.056 29.594 23.606 37.417l110.188 63.614c14.623 8.442 32.639 8.442 47.261-.001l134.219-77.491c13.558-7.828 22.389-21.833 23.608-37.441l19.136-244.977-1.637.945 1.662-.96v-3.876z" fill="url(#SVGID_14_)"/><path d="m323.277 215.781v-3.879c0-14.886-9.051-21.729-20.216-15.283s-20.216 23.739-20.216 38.626v3.879l-2.984 259.462 35.907-20.731 7.52-262.081z" fill="#fff"/><path d="m383.937 149.926c-11.165 6.446-20.216 23.739-20.216 38.626v3.879l-12.05 264.697 35.898-20.726 16.582-267.314v-3.879c.001-14.887-9.049-21.729-20.214-15.283z" fill="#fff"/><path d="m137.428 201.813v-7.496c0-12.889-7.836-27.862-17.503-33.443-9.666-5.581-17.503.343-17.503 13.232v7.496l17.168 265.904 31.093 17.952z" fill="#d7d1eb"/><path d="m207.44 242.235v-7.496c0-12.889-7.836-27.862-17.503-33.442-9.667-5.581-17.503.343-17.503 13.232v7.496l9.342 261.385 31.092 17.951z" fill="#d7d1eb"/><path d="m192.647 87.388c-3.585.606-6.769 2.149-9.377 4.317-.557-3.345-1.959-6.595-4.276-9.396-7.005-8.468-19.549-9.655-28.017-2.65-8.469 7.005-9.655 19.549-2.65 28.017 2.317 2.801 5.246 4.787 8.427 5.962-2.618 2.155-4.732 4.994-5.999 8.401-3.832 10.301 1.413 21.757 11.713 25.589 10.301 3.831 21.757-1.413 25.589-11.714 1.268-3.407 1.523-6.937.95-10.28 3.176 1.19 6.691 1.601 10.275.995 10.836-1.832 18.136-12.102 16.303-22.938-1.832-10.835-12.102-18.135-22.938-16.303z" fill="url(#SVGID_15_)"/><circle cx="260.549" cy="24.005" fill="url(#SVGID_16_)" r="24.005"/><circle cx="243.046" cy="86.083" fill="url(#SVGID_17_)" r="24.005"/><circle cx="284.554" cy="48.01" fill="url(#SVGID_18_)" r="24.005"/><circle cx="289.283" cy="135.993" fill="url(#SVGID_19_)" r="24.005"/><circle cx="198.762" cy="143.036" fill="url(#SVGID_20_)" r="24.005"/></g></svg>